<svg width="24" height="23" viewBox="0 0 24 23" fill="none" xmlns="http://www.w3.org/2000/svg">
<path d="M10.0389 0.729492C11.1652 -0.243216 12.8345 -0.243215 13.9608 0.729492L23.6531 9.10059C24.071 9.46152 24.1175 10.0928 23.7567 10.5107C23.3957 10.9286 22.7645 10.9751 22.3465 10.6143L20.9998 9.45117V18.0576C20.9997 20.2666 19.2089 22.0576 16.9998 22.0576H6.99982C4.79079 22.0576 2.99995 20.2666 2.99982 18.0576V9.45117L1.65314 10.6143C1.23516 10.975 0.603907 10.9286 0.242981 10.5107C-0.117827 10.0928 -0.0713954 9.46152 0.346497 9.10059L10.0389 0.729492ZM12.6531 2.24316C12.2778 1.91916 11.7219 1.91916 11.3465 2.24316L4.99982 7.72363V18.0576C4.99995 19.1621 5.89536 20.0576 6.99982 20.0576H9.99982V14.0576C9.99982 13.5053 10.4475 13.0576 10.9998 13.0576H12.9998C13.5521 13.0576 13.9998 13.5053 13.9998 14.0576V20.0576H16.9998C18.1043 20.0576 18.9997 19.1621 18.9998 18.0576V7.72363L12.6531 2.24316Z" fill="white"/>
</svg>
