<svg width="22" height="22" viewBox="0 0 22 22" fill="none" xmlns="http://www.w3.org/2000/svg">
<path d="M12.4897 11.1766C12.4023 11.9218 11.7687 12.5 11 12.5C10.1716 12.5 9.5 11.8284 9.5 11C9.5 10.1716 10.1716 9.5 11 9.5C11.1175 9.5 11.2318 9.51351 11.3415 9.53905L12.5194 8.71429C11.1936 7.95095 9.00745 8.2788 7.12814 9.6442C7.0671 9.68855 7.007 9.73355 6.94786 9.77915C7.20391 8.92421 7.73184 8.14348 8.50929 7.57863C10.1395 6.39422 12.3334 6.54651 13.7852 7.82798L14.7142 7.17743C12.4788 5.01046 8.51303 4.97874 5.39429 7.24464C4.9291 7.58262 4.5067 7.95432 4.12923 8.35144C4.62191 7.06937 5.47858 5.91026 6.67251 5.04281C9.96214 2.65276 14.5664 3.38201 16.9565 6.67164L16.9582 6.674L16.9525 6.67812C16.9803 6.70877 17.0064 6.74148 17.0307 6.77621C17.3475 7.22861 17.2375 7.85216 16.7851 8.16894L12.4897 11.1766Z" fill="white" fill-opacity="0.6"/>
<path fill-rule="evenodd" clip-rule="evenodd" d="M11 0C4.92487 0 0 4.92487 0 11C0 17.0751 4.92487 22 11 22C17.0751 22 22 17.0751 22 11C22 4.92487 17.0751 0 11 0ZM2 11C2 6.02944 6.02944 2 11 2C15.9706 2 20 6.02944 20 11C20 15.9706 15.9706 20 11 20C6.02944 20 2 15.9706 2 11Z" fill="white" fill-opacity="0.6"/>
</svg>
