<svg width="20" height="20" viewBox="0 0 20 20" fill="none" xmlns="http://www.w3.org/2000/svg">
<path d="M10 16.667C10.4602 16.667 10.833 17.0398 10.833 17.5C10.833 17.9602 10.4602 18.333 10 18.333C9.53976 18.333 9.16699 17.9602 9.16699 17.5C9.16699 17.0398 9.53976 16.667 10 16.667ZM4.1084 14.7139C4.43376 14.3888 4.96077 14.3888 5.28613 14.7139C5.61157 15.0393 5.61157 15.5671 5.28613 15.8926C4.96075 16.2177 4.43378 16.2177 4.1084 15.8926C3.78296 15.5671 3.78296 15.0393 4.1084 14.7139ZM14.7139 14.7139C15.0392 14.3888 15.5662 14.3888 15.8916 14.7139C16.217 15.0393 16.217 15.5671 15.8916 15.8926C15.5662 16.2177 15.0393 16.2177 14.7139 15.8926C14.3884 15.5671 14.3884 15.0393 14.7139 14.7139ZM10 5C12.7614 5 15 7.23858 15 10C15 12.7614 12.7614 15 10 15C7.23858 15 5 12.7614 5 10C5 7.23858 7.23858 5 10 5ZM10 6.66699C8.15905 6.66699 6.66699 8.15905 6.66699 10C6.66699 11.8409 8.15905 13.333 10 13.333C11.8409 13.333 13.333 11.8409 13.333 10C13.333 8.15905 11.8409 6.66699 10 6.66699ZM2.5 9.16699C2.96024 9.16699 3.33301 9.53976 3.33301 10C3.33301 10.4602 2.96024 10.833 2.5 10.833C2.03976 10.833 1.66699 10.4602 1.66699 10C1.66699 9.53976 2.03976 9.16699 2.5 9.16699ZM17.5 9.16699C17.9602 9.16699 18.333 9.53976 18.333 10C18.333 10.4602 17.9602 10.833 17.5 10.833C17.0398 10.833 16.667 10.4602 16.667 10C16.667 9.53976 17.0398 9.16699 17.5 9.16699ZM4.1084 4.10742C4.43378 3.78226 4.96075 3.78226 5.28613 4.10742C5.61157 4.43286 5.61157 4.9607 5.28613 5.28613C4.96077 5.6112 4.43376 5.6112 4.1084 5.28613C3.78296 4.9607 3.78296 4.43286 4.1084 4.10742ZM14.7139 4.10742C15.0393 3.78226 15.5662 3.78226 15.8916 4.10742C16.217 4.43286 16.217 4.9607 15.8916 5.28613C15.5662 5.6112 15.0392 5.6112 14.7139 5.28613C14.3884 4.9607 14.3884 4.43286 14.7139 4.10742ZM10 1.66699C10.4602 1.66699 10.833 2.03976 10.833 2.5C10.833 2.96024 10.4602 3.33301 10 3.33301C9.53976 3.33301 9.16699 2.96024 9.16699 2.5C9.16699 2.03976 9.53976 1.66699 10 1.66699Z" fill="white"/>
</svg>
