<svg width="24" height="24" viewBox="0 0 24 24" fill="none" xmlns="http://www.w3.org/2000/svg">
<path d="M15.033 9.44008C15.1312 9.49691 15.2127 9.57856 15.2694 9.67686C15.3261 9.77515 15.356 9.88661 15.356 10.0001C15.356 10.1135 15.3261 10.225 15.2694 10.3233C15.2127 10.4216 15.1312 10.5033 15.033 10.5601L10.968 12.9121C10.8698 12.9689 10.7584 12.9988 10.645 12.9988C10.5316 12.9988 10.4202 12.9689 10.322 12.9121C10.2238 12.8553 10.1424 12.7736 10.0858 12.6753C10.0293 12.577 9.9997 12.4655 10 12.3521V7.64808C9.9998 7.53481 10.0294 7.42349 10.0859 7.32531C10.1424 7.22713 10.2237 7.14556 10.3218 7.08879C10.4198 7.03203 10.531 7.00208 10.6443 7.00195C10.7576 7.00183 10.8689 7.03153 10.967 7.08808L15.033 9.44008Z" stroke="white" stroke-opacity="0.6" stroke-width="1.5" stroke-linecap="round" stroke-linejoin="round"/>
<path d="M12 17V21" stroke="white" stroke-opacity="0.6" stroke-width="1.5" stroke-linecap="round" stroke-linejoin="round"/>
<path d="M8 21H16" stroke="white" stroke-opacity="0.6" stroke-width="1.5" stroke-linecap="round" stroke-linejoin="round"/>
<path d="M20 3H4C2.89543 3 2 3.89543 2 5V15C2 16.1046 2.89543 17 4 17H20C21.1046 17 22 16.1046 22 15V5C22 3.89543 21.1046 3 20 3Z" stroke="white" stroke-opacity="0.6" stroke-width="1.5" stroke-linecap="round" stroke-linejoin="round"/>
</svg>
